<?xml version="1.0" standalone="no"?>
<!DOCTYPE svg PUBLIC "-//W3C//DTD SVG 20010904//EN"
 "http://www.w3.org/TR/2001/REC-SVG-20010904/DTD/svg10.dtd">
<svg version="1.0" xmlns="http://www.w3.org/2000/svg"
 width="2356.000000pt" height="2356.000000pt" viewBox="0 0 2356.000000 2356.000000"
 preserveAspectRatio="xMidYMid meet">
<metadata>
Created by potrace 1.14, written by Peter Selinger 2001-2017
</metadata>
<g transform="translate(0.000000,2356.000000) scale(0.100000,-0.100000)"
fill="#000000" stroke="none">
<path d="M10966 16443 c-1 -1 -137 -5 -302 -8 -164 -3 -375 -8 -469 -10 -303
-8 -672 -15 -1030 -20 -192 -3 -399 -7 -460 -10 -173 -7 -338 -16 -365 -20
-14 -2 -69 -6 -123 -10 -54 -4 -106 -8 -115 -10 -10 -1 -55 -6 -101 -10 -47
-4 -92 -8 -101 -10 -9 -2 -52 -6 -96 -9 -43 -4 -90 -8 -104 -11 -14 -2 -56 -7
-95 -10 -38 -3 -86 -7 -105 -10 -34 -4 -76 -8 -215 -21 -38 -3 -78 -8 -88 -10
-10 -2 -48 -6 -85 -10 -36 -3 -73 -7 -82 -9 -8 -1 -44 -6 -80 -10 -36 -3 -78
-9 -94 -11 -15 -3 -78 -38 -140 -78 -61 -40 -208 -137 -326 -214 -118 -78
-222 -146 -230 -152 -8 -6 -145 -97 -305 -203 -276 -183 -733 -491 -840 -565
-160 -111 -523 -373 -580 -419 -38 -30 -818 -610 -935 -694 -521 -377 -690
-516 -824 -678 -102 -123 -116 -148 -110 -195 5 -38 16 -104 30 -166 2 -14 9
-49 14 -79 5 -30 13 -58 17 -62 5 -3 69 -50 143 -104 74 -53 144 -103 155
-111 11 -8 90 -65 175 -126 85 -62 252 -181 370 -267 118 -85 269 -193 335
-240 66 -47 122 -88 125 -91 3 -3 75 -55 160 -116 85 -61 286 -204 445 -319
160 -115 304 -218 320 -230 26 -18 214 -152 490 -349 50 -36 114 -82 144 -103
29 -21 119 -85 200 -143 126 -92 416 -299 461 -330 31 -21 186 -132 205 -146
11 -8 92 -65 180 -127 465 -329 755 -534 800 -567 47 -35 865 -615 998 -708
67 -47 465 -335 534 -386 499 -371 965 -689 1498 -1023 105 -65 286 -180 402
-253 302 -192 296 -187 323 -203 14 -8 70 -41 126 -74 173 -103 270 -121 372
-69 76 38 197 113 492 306 146 95 294 191 330 215 255 166 608 402 785 525
178 124 254 178 430 304 29 21 565 414 595 436 14 10 162 121 330 246 168 125
393 293 500 373 107 80 204 153 216 161 12 8 87 64 166 123 78 59 152 115 163
122 11 8 79 59 152 113 188 138 274 200 468 339 93 67 178 128 187 135 9 7 25
19 35 26 34 24 391 277 414 295 13 9 69 49 124 88 55 39 109 77 120 85 111 81
204 148 225 162 14 9 61 43 105 75 44 32 122 88 174 125 139 100 172 124 387
282 108 80 209 154 225 165 15 11 169 124 340 250 172 127 338 248 368 269 31
21 68 48 82 60 15 12 37 29 50 38 32 23 679 504 902 670 98 73 210 156 250
184 55 38 73 57 77 80 12 67 -55 309 -94 339 -7 6 -35 29 -62 51 -40 34 -161
135 -259 216 -208 173 -361 299 -500 413 -93 77 -172 142 -175 145 -3 3 -25
21 -50 40 -25 19 -50 39 -56 45 -6 5 -33 28 -60 50 -27 22 -64 54 -84 71 -19
16 -87 72 -150 124 -63 52 -117 96 -120 99 -3 4 -45 40 -95 80 -83 69 -131
110 -210 180 -120 107 -296 243 -372 287 -17 11 -130 79 -250 152 -120 73
-481 291 -803 484 -322 193 -597 358 -612 367 -332 201 -322 196 -428 218 -40
8 -153 23 -220 28 -41 4 -92 8 -112 10 -21 2 -73 7 -115 10 -43 3 -100 8 -128
10 -27 2 -86 7 -130 10 -44 4 -96 8 -115 10 -19 2 -66 6 -105 9 -71 7 -137 13
-210 21 -22 2 -71 7 -110 10 -38 3 -90 7 -115 10 -250 24 -675 39 -1445 50
-214 3 -574 8 -800 11 -434 7 -1324 11 -1329 7z"/>
</g>
</svg>
